<?xml version="1.0" encoding="UTF-8" standalone="no"?>
<!DOCTYPE svg PUBLIC "-//W3C//DTD SVG 20010904//EN"
              "http://www.w3.org/TR/2001/REC-SVG-20010904/DTD/svg10.dtd">

<svg xmlns="http://www.w3.org/2000/svg"
     width="6.4in" height="3.6in"
     viewBox="0 0 1920 1080">
  <path id="Path #1"
        fill="none" stroke="black" stroke-width="1"
        d="M 302.16,207.25
           C 302.16,207.25 310.00,207.25 310.00,207.25
             310.00,207.25 310.00,194.59 310.00,194.59
             310.00,194.59 302.16,194.59 302.16,194.59
             302.16,194.59 302.16,207.25 302.16,207.25 Z
           M 290.16,220.02
           C 290.16,222.76 291.23,225.15 293.38,227.19
             295.53,229.23 298.16,230.25 301.25,230.25
             303.64,230.25 305.70,229.48 307.42,227.92
             309.14,226.37 310.00,224.57 310.00,222.52
             310.00,222.52 310.00,216.00 310.00,216.00
             310.00,216.00 294.03,216.00 294.03,216.00
             292.93,216.00 292.00,216.38 291.27,217.12
             290.52,217.88 290.16,218.84 290.16,220.02 Z
           M 292.00,185.84
           C 292.00,185.84 337.80,185.84 337.80,185.84
             337.80,185.84 337.80,194.59 337.80,194.59
             337.80,194.59 320.16,194.59 320.16,194.59
             320.16,194.59 320.16,207.25 320.16,207.25
             320.16,207.25 325.16,207.25 325.16,207.25
             329.38,207.25 332.94,208.73 335.83,211.69
             338.71,214.65 340.16,218.26 340.16,222.53
             340.16,227.01 338.82,230.88 336.16,234.12
             333.49,237.38 330.20,239.00 326.28,239.00
             325.26,239.00 324.21,238.89 323.12,238.69
             322.05,238.48 320.33,237.96 317.97,237.14
             317.97,237.14 320.22,227.95 320.22,227.95
             322.34,229.17 323.71,229.86 324.33,230.02
             324.94,230.17 325.57,230.25 326.20,230.25
             327.05,230.25 327.90,229.54 328.73,228.11
             329.58,226.67 330.00,224.81 330.00,222.52
             330.00,220.61 329.50,219.05 328.50,217.83
             327.51,216.61 326.37,216.00 325.08,216.00
             325.08,216.00 320.16,216.00 320.16,216.00
             320.16,216.00 320.16,222.41 320.16,222.41
             320.16,227.05 318.30,230.98 314.58,234.19
             310.86,237.40 306.43,239.00 301.30,239.00
             295.50,239.00 290.50,237.17 286.30,233.50
             282.10,229.82 280.00,225.36 280.00,220.09
             280.00,216.55 281.40,213.53 284.20,211.02
             287.00,208.51 289.60,207.25 292.00,207.25
             292.00,207.25 292.00,185.84 292.00,185.84 Z
           M 363.16,222.52
           C 363.16,224.79 363.70,226.65 364.78,228.09
             365.86,229.53 367.10,230.25 368.48,230.25
             370.25,230.25 371.78,229.50 373.06,228.00
             374.35,226.50 375.00,224.67 375.00,222.52
             375.00,220.63 374.47,219.07 373.41,217.84
             372.35,216.62 371.11,216.00 369.69,216.00
             367.86,216.00 366.32,216.63 365.05,217.89
             363.79,219.15 363.16,220.70 363.16,222.52 Z
           M 394.16,216.64
           C 394.16,220.73 394.58,224.02 395.42,226.52
             396.27,229.01 396.94,230.25 397.44,230.25
             397.94,230.25 398.61,229.02 399.45,226.56
             400.30,224.09 400.72,220.79 400.72,216.64
             400.72,213.92 400.30,211.33 399.47,208.86
             398.64,206.38 398.09,204.97 397.80,204.62
             397.08,205.89 396.29,207.74 395.44,210.19
             394.58,212.64 394.16,214.79 394.16,216.64 Z
           M 346.00,216.67
           C 346.00,207.82 349.12,200.30 355.38,194.12
             361.63,187.94 369.19,184.84 378.03,184.84
             382.10,184.84 385.87,185.50 389.33,186.80
             392.80,188.10 395.10,189.41 396.25,190.73
             397.36,189.45 399.41,188.15 402.38,186.83
             405.35,185.51 408.48,184.84 411.75,184.84
             417.99,184.84 423.32,187.55 427.75,192.97
             432.02,198.12 434.16,204.38 434.16,211.73
             434.16,211.73 434.16,211.92 434.16,211.92
             434.16,216.79 432.93,221.51 430.48,226.08
             428.00,230.71 424.02,235.32 418.53,239.89
             418.53,239.89 412.09,231.73 412.09,231.73
             416.53,229.17 419.62,226.25 421.38,222.97
             423.12,219.68 424.00,215.99 424.00,211.91
             424.00,206.76 422.77,202.42 420.31,198.89
             417.86,195.36 415.00,193.59 411.72,193.59
             410.44,193.59 408.90,194.05 407.11,194.97
             405.33,195.89 403.97,196.73 403.03,197.50
             404.61,198.84 406.20,201.32 407.78,204.95
             409.36,208.58 410.16,212.45 410.16,216.58
             410.16,222.50 408.96,227.71 406.58,232.23
             404.19,236.75 401.14,239.00 397.44,239.00
             393.73,239.00 390.68,236.75 388.30,232.23
             385.91,227.71 384.72,222.50 384.72,216.58
             384.72,212.88 385.36,209.30 386.64,205.83
             387.93,202.35 389.35,199.66 390.91,197.77
             389.82,196.86 388.07,195.94 385.64,195.00
             383.22,194.06 380.79,193.59 378.33,193.59
             371.99,193.59 366.59,195.84 362.12,200.34
             357.66,204.84 355.44,210.28 355.44,216.66
             355.44,218.56 355.85,220.44 356.67,222.28
             357.49,224.12 358.19,226.24 358.75,228.62
             356.91,228.09 355.82,227.26 355.48,226.12
             355.16,224.98 355.00,223.81 355.00,222.62
             355.00,218.31 356.47,214.67 359.42,211.70
             362.37,208.73 365.91,207.25 370.03,207.25
             373.97,207.25 377.35,208.73 380.19,211.70
             383.02,214.66 384.44,218.27 384.44,222.53
             384.44,227.05 382.93,230.93 379.92,234.16
             376.91,237.39 373.24,239.00 368.92,239.00
             362.64,239.00 357.25,236.81 352.75,232.44
             348.25,228.06 346.00,222.81 346.00,216.67 Z
           M 460.00,219.39
           C 458.96,220.58 458.44,222.09 458.44,223.92
             458.44,225.75 458.96,227.26 460.00,228.45
             461.05,229.65 462.30,230.25 463.73,230.25
             465.16,230.25 466.39,229.65 467.44,228.45
             468.48,227.26 469.00,225.74 469.00,223.91
             469.00,222.09 468.48,220.58 467.44,219.39
             466.39,218.20 465.16,217.59 463.73,217.59
             462.30,217.59 461.05,218.20 460.00,219.39 Z
           M 507.00,209.64
           C 507.00,205.77 505.90,202.04 503.70,198.47
             501.52,194.89 497.68,191.56 492.19,188.50
             492.19,188.50 499.00,181.91 499.00,181.91
             505.07,185.37 509.61,189.48 512.61,194.23
             515.64,199.10 517.16,204.21 517.16,209.58
             517.16,217.62 514.94,224.54 510.52,230.33
             506.10,236.11 500.75,239.00 494.48,239.00
             490.21,239.00 486.56,237.64 483.53,234.92
             480.51,232.20 479.00,228.88 479.00,224.95
             479.00,224.95 479.00,201.14 479.00,201.14
             479.00,199.10 478.18,197.34 476.55,195.84
             474.91,194.34 472.93,193.59 470.61,193.59
             465.05,193.59 460.29,195.62 456.34,199.67
             452.41,203.71 450.44,208.61 450.44,214.36
             450.44,217.89 450.75,220.88 451.39,223.33
             452.04,225.77 452.36,227.98 452.38,229.98
             450.66,230.17 449.66,229.51 449.39,228.00
             449.13,226.48 449.00,224.76 449.00,222.83
             449.00,219.02 450.46,215.73 453.38,212.98
             456.29,210.23 459.74,208.84 463.72,208.84
             467.72,208.84 471.17,210.32 474.08,213.27
             476.98,216.20 478.44,219.76 478.44,223.92
             478.44,228.14 477.02,231.71 474.17,234.62
             471.33,237.54 467.95,239.00 464.03,239.00
             457.66,239.00 452.23,236.59 447.73,231.78
             443.24,226.97 441.00,221.16 441.00,214.34
             441.00,206.21 443.88,199.26 449.62,193.50
             455.38,187.73 462.32,184.84 470.44,184.84
             475.53,184.84 479.92,186.43 483.61,189.59
             487.30,192.75 489.16,196.66 489.16,201.31
             489.16,201.31 489.16,225.12 489.16,225.12
             489.16,226.55 489.66,227.77 490.67,228.77
             491.69,229.76 492.95,230.25 494.45,230.25
             497.74,230.25 500.66,228.29 503.19,224.38
             505.73,220.45 507.00,215.54 507.00,209.64 Z
           M 567.16,199.95
           C 567.16,199.95 567.16,229.25 567.16,229.25
             567.16,229.25 581.73,229.25 581.73,229.25
             583.30,229.25 584.73,228.21 586.03,226.12
             587.34,224.03 588.00,221.36 588.00,218.09
             588.00,211.20 586.41,205.39 583.25,200.67
             580.08,195.95 576.38,193.59 572.16,193.59
             570.81,193.59 569.64,194.20 568.64,195.42
             567.65,196.64 567.16,198.15 567.16,199.95 Z
           M 572.19,184.84
           C 579.48,184.84 585.63,188.11 590.64,194.62
             595.65,201.15 598.16,208.95 598.16,218.03
             598.16,223.45 596.58,228.13 593.42,232.08
             590.27,236.03 586.36,238.00 581.72,238.00
             581.72,238.00 528.00,238.00 528.00,238.00
             528.00,238.00 528.00,185.97 528.00,185.97
             528.00,185.97 538.16,185.97 538.16,185.97
             538.16,185.97 538.16,229.25 538.16,229.25
             538.16,229.25 557.00,229.25 557.00,229.25
             557.00,229.25 557.00,200.09 557.00,200.09
             557.00,195.81 558.48,192.20 561.44,189.27
             564.41,186.32 567.99,184.84 572.19,184.84 Z
           M 624.16,207.25
           C 624.16,207.25 632.00,207.25 632.00,207.25
             632.00,207.25 632.00,194.59 632.00,194.59
             632.00,194.59 624.16,194.59 624.16,194.59
             624.16,194.59 624.16,207.25 624.16,207.25 Z
           M 612.16,220.02
           C 612.16,222.76 613.23,225.15 615.38,227.19
             617.53,229.23 620.16,230.25 623.25,230.25
             625.64,230.25 627.70,229.48 629.42,227.92
             631.14,226.37 632.00,224.57 632.00,222.52
             632.00,222.52 632.00,216.00 632.00,216.00
             632.00,216.00 616.03,216.00 616.03,216.00
             614.93,216.00 614.00,216.38 613.27,217.12
             612.52,217.88 612.16,218.84 612.16,220.02 Z
           M 614.00,185.84
           C 614.00,185.84 659.80,185.84 659.80,185.84
             659.80,185.84 659.80,194.59 659.80,194.59
             659.80,194.59 642.16,194.59 642.16,194.59
             642.16,194.59 642.16,207.25 642.16,207.25
             642.16,207.25 647.16,207.25 647.16,207.25
             651.38,207.25 654.94,208.73 657.83,211.69
             660.71,214.65 662.16,218.26 662.16,222.53
             662.16,227.01 660.82,230.88 658.16,234.12
             655.49,237.38 652.20,239.00 648.28,239.00
             647.26,239.00 646.21,238.89 645.12,238.69
             644.05,238.48 642.33,237.96 639.97,237.14
             639.97,237.14 642.22,227.95 642.22,227.95
             644.34,229.17 645.71,229.86 646.33,230.02
             646.94,230.17 647.57,230.25 648.20,230.25
             649.05,230.25 649.90,229.54 650.73,228.11
             651.58,226.67 652.00,224.81 652.00,222.52
             652.00,220.61 651.50,219.05 650.50,217.83
             649.51,216.61 648.37,216.00 647.08,216.00
             647.08,216.00 642.16,216.00 642.16,216.00
             642.16,216.00 642.16,222.41 642.16,222.41
             642.16,227.05 640.30,230.98 636.58,234.19
             632.86,237.40 628.43,239.00 623.30,239.00
             617.50,239.00 612.50,237.17 608.30,233.50
             604.10,229.82 602.00,225.36 602.00,220.09
             602.00,216.55 603.40,213.53 606.20,211.02
             609.00,208.51 611.60,207.25 614.00,207.25
             614.00,207.25 614.00,185.84 614.00,185.84 Z
           M 701.88,168.97
           C 701.88,166.70 702.66,164.78 704.25,163.20
             705.83,161.62 707.76,160.83 710.03,160.83
             712.31,160.83 714.22,161.62 715.77,163.20
             717.30,164.79 718.08,166.71 718.08,168.97
             718.08,171.23 717.30,173.14 715.75,174.69
             714.21,176.23 712.30,177.00 710.03,177.00
             707.76,177.00 705.83,176.21 704.25,174.64
             702.66,173.06 701.88,171.17 701.88,168.97 Z
           M 686.94,221.31
           C 686.94,223.53 687.45,225.35 688.48,226.77
             689.52,228.18 690.69,228.89 691.97,228.89
             693.25,228.89 694.41,228.18 695.44,226.77
             696.48,225.35 697.00,223.53 697.00,221.31
             697.00,219.48 696.49,217.97 695.48,216.78
             694.47,215.59 693.30,215.00 691.97,215.00
             690.63,215.00 689.46,215.61 688.45,216.83
             687.44,218.04 686.94,219.53 686.94,221.31 Z
           M 710.22,185.84
           C 710.22,185.84 756.34,185.84 756.34,185.84
             756.34,185.84 756.34,194.78 756.34,194.78
             756.34,194.78 743.17,194.78 743.17,194.78
             743.17,194.78 743.17,237.83 743.17,237.83
             743.17,237.83 732.95,237.83 732.95,237.83
             732.95,237.83 732.95,194.78 732.95,194.78
             732.95,194.78 719.16,194.78 719.16,194.78
             719.16,194.78 719.16,237.83 719.16,237.83
             719.16,237.83 709.05,237.83 709.05,237.83
             709.05,237.83 709.05,211.84 709.05,211.84
             709.05,206.80 707.46,202.51 704.30,198.95
             701.13,195.39 697.38,193.61 693.05,193.61
             688.74,193.61 685.02,195.48 681.88,199.22
             678.73,202.96 677.16,207.55 677.16,212.98
             677.16,215.73 677.72,218.31 678.86,220.75
             679.99,223.18 680.66,225.16 680.86,226.70
             679.84,227.12 679.10,226.62 678.66,225.22
             678.22,223.81 678.00,222.51 678.00,221.31
             678.00,217.07 679.35,213.48 682.06,210.52
             684.77,207.55 688.07,206.06 691.97,206.06
             695.79,206.06 699.07,207.56 701.81,210.55
             704.56,213.54 705.94,217.12 705.94,221.31
             705.94,226.15 704.34,230.30 701.16,233.78
             697.98,237.26 694.06,239.00 689.41,239.00
             683.48,239.00 678.46,236.45 674.36,231.33
             670.25,226.21 668.20,220.11 668.20,213.00
             668.20,205.22 670.60,198.56 675.41,193.02
             680.21,187.46 686.09,184.69 693.06,184.69
             697.61,184.69 701.78,185.63 705.56,187.52
             709.34,189.39 711.13,190.62 710.94,191.22
             710.94,191.22 710.22,185.84 710.22,185.84 Z
           M 838.03,217.20
           C 836.78,218.67 836.16,220.50 836.16,222.67
             836.16,224.84 836.79,226.65 838.06,228.09
             839.34,229.53 840.80,230.25 842.45,230.25
             844.52,230.25 846.30,229.50 847.78,228.00
             849.26,226.50 850.00,224.73 850.00,222.67
             850.00,220.56 849.26,218.75 847.78,217.25
             846.30,215.75 844.52,215.00 842.45,215.00
             840.75,215.00 839.28,215.73 838.03,217.20 Z
           M 894.00,228.84
           C 894.00,228.84 894.00,185.97 894.00,185.97
             894.00,185.97 904.16,185.97 904.16,185.97
             904.16,185.97 904.16,237.59 904.16,237.59
             904.16,237.59 860.02,237.59 860.02,237.59
             860.02,237.59 860.02,231.58 860.02,231.58
             862.09,229.06 863.60,226.29 864.56,223.27
             865.52,220.23 866.00,216.84 866.00,213.08
             866.00,207.67 864.12,203.07 860.38,199.28
             856.63,195.49 852.07,193.59 846.67,193.59
             841.33,193.59 836.79,195.48 833.05,199.25
             829.30,203.01 827.44,207.58 827.44,212.95
             827.44,215.48 827.82,217.98 828.58,220.47
             829.35,222.95 829.85,225.62 830.09,228.48
             828.32,227.80 827.32,226.89 827.08,225.77
             826.84,224.64 826.72,223.59 826.72,222.61
             826.72,218.13 828.24,214.29 831.30,211.08
             834.35,207.86 838.05,206.25 842.42,206.25
             847.08,206.25 851.08,207.84 854.42,211.02
             857.77,214.20 859.44,218.08 859.44,222.67
             859.44,227.18 857.83,231.03 854.61,234.22
             851.40,237.41 847.49,239.00 842.88,239.00
             835.95,239.00 830.07,236.47 825.23,231.41
             820.41,226.34 818.00,220.23 818.00,213.08
             818.00,205.27 820.77,198.61 826.33,193.11
             831.88,187.60 838.59,184.84 846.45,184.84
             854.61,184.84 861.60,187.61 867.42,193.12
             873.24,198.65 876.16,205.28 876.16,213.02
             876.16,216.37 875.72,219.65 874.84,222.86
             873.98,226.07 873.32,228.06 872.86,228.84
             872.86,228.84 894.00,228.84 894.00,228.84 Z
           M 918.00,186.25
           C 918.00,186.25 964.66,186.25 964.66,186.25
             964.66,186.25 964.66,195.00 964.66,195.00
             964.66,195.00 951.16,195.00 951.16,195.00
             951.16,195.00 951.16,238.50 951.16,238.50
             951.16,238.50 941.00,238.50 941.00,238.50
             941.00,238.50 941.00,195.00 941.00,195.00
             941.00,195.00 928.16,195.00 928.16,195.00
             928.16,195.00 928.16,238.50 928.16,238.50
             928.16,238.50 918.00,238.50 918.00,238.50
             918.00,238.50 918.00,186.25 918.00,186.25 Z
           M 995.00,168.98
           C 995.00,166.71 995.79,164.79 997.36,163.22
             998.94,161.64 1000.87,160.84 1003.14,160.84
             1005.41,160.84 1007.32,161.64 1008.86,163.22
             1010.40,164.80 1011.17,166.73 1011.17,168.98
             1011.17,171.25 1010.39,173.15 1008.84,174.70
             1007.30,176.25 1005.40,177.02 1003.14,177.02
             1000.87,177.02 998.94,176.23 997.36,174.66
             995.79,173.07 995.00,171.18 995.00,168.98 Z
           M 1008.62,200.06
           C 1008.62,200.06 1008.62,229.06 1008.62,229.06
             1008.62,229.06 1023.59,229.06 1023.59,229.06
             1025.22,229.06 1026.70,228.03 1028.03,225.97
             1029.38,223.90 1030.05,221.25 1030.05,218.03
             1030.05,211.22 1028.43,205.48 1025.19,200.80
             1021.95,196.12 1018.15,193.78 1013.80,193.78
             1012.39,193.78 1011.18,194.39 1010.16,195.61
             1009.13,196.82 1008.62,198.30 1008.62,200.06 Z
           M 1013.83,184.84
           C 1021.20,184.84 1027.43,188.11 1032.52,194.62
             1037.61,201.14 1040.16,208.94 1040.16,218.03
             1040.16,223.45 1038.56,228.13 1035.38,232.08
             1032.19,236.03 1028.24,238.00 1023.55,238.00
             1023.55,238.00 1008.98,238.00 1008.98,238.00
             1009.12,238.83 1010.04,240.02 1011.73,241.55
             1013.44,243.08 1015.35,243.84 1017.45,243.84
             1017.45,243.84 1034.20,243.84 1034.20,243.84
             1034.20,243.84 1034.20,252.88 1034.20,252.88
             1034.20,252.88 1022.45,252.88 1022.45,252.88
             1019.90,252.88 1017.49,253.52 1015.23,254.81
             1012.98,256.11 1011.20,257.89 1009.89,260.14
             1007.75,263.80 1004.91,266.65 1001.38,268.70
             997.83,270.75 994.08,271.78 990.12,271.78
             984.70,271.78 979.98,270.21 975.98,267.08
             971.98,263.94 969.98,260.05 969.98,255.41
             969.98,251.60 971.36,248.32 974.11,245.55
             976.86,242.77 980.12,241.39 983.91,241.39
             983.91,241.39 995.42,241.39 995.42,241.39
             995.42,241.39 995.42,250.44 995.42,250.44
             995.42,250.44 983.97,250.44 983.97,250.44
             982.97,250.44 982.09,250.90 981.33,251.83
             980.58,252.77 980.20,253.98 980.20,255.48
             980.20,257.45 981.13,259.17 983.00,260.64
             984.86,262.11 987.19,262.84 989.98,262.84
             991.83,262.84 993.55,262.40 995.16,261.52
             996.76,260.64 997.98,259.48 998.81,258.05
             1000.00,255.89 1001.48,253.92 1003.27,252.14
             1005.05,250.36 1006.11,249.58 1006.45,249.80
             1005.19,249.69 1003.54,248.20 1001.48,245.33
             999.44,242.46 998.42,240.02 998.42,238.00
             998.42,238.00 969.98,238.00 969.98,238.00
             969.98,238.00 969.98,186.02 969.98,186.02
             969.98,186.02 980.20,186.02 980.20,186.02
             980.20,186.02 980.20,229.06 980.20,229.06
             980.20,229.06 998.42,229.06 998.42,229.06
             998.42,229.06 998.42,200.05 998.42,200.05
             998.42,195.77 999.93,192.16 1002.94,189.23
             1005.95,186.31 1009.58,184.84 1013.83,184.84 Z
           M 1066.16,207.25
           C 1066.16,207.25 1074.00,207.25 1074.00,207.25
             1074.00,207.25 1074.00,194.59 1074.00,194.59
             1074.00,194.59 1066.16,194.59 1066.16,194.59
             1066.16,194.59 1066.16,207.25 1066.16,207.25 Z
           M 1054.16,220.02
           C 1054.16,222.76 1055.23,225.15 1057.38,227.19
             1059.53,229.23 1062.16,230.25 1065.25,230.25
             1067.64,230.25 1069.70,229.48 1071.42,227.92
             1073.14,226.37 1074.00,224.57 1074.00,222.52
             1074.00,222.52 1074.00,216.00 1074.00,216.00
             1074.00,216.00 1058.03,216.00 1058.03,216.00
             1056.93,216.00 1056.00,216.38 1055.27,217.12
             1054.52,217.88 1054.16,218.84 1054.16,220.02 Z
           M 1056.00,185.84
           C 1056.00,185.84 1101.80,185.84 1101.80,185.84
             1101.80,185.84 1101.80,194.59 1101.80,194.59
             1101.80,194.59 1084.16,194.59 1084.16,194.59
             1084.16,194.59 1084.16,207.25 1084.16,207.25
             1084.16,207.25 1089.16,207.25 1089.16,207.25
             1093.38,207.25 1096.94,208.73 1099.83,211.69
             1102.71,214.65 1104.16,218.26 1104.16,222.53
             1104.16,227.01 1102.82,230.88 1100.16,234.12
             1097.49,237.38 1094.20,239.00 1090.28,239.00
             1089.26,239.00 1088.21,238.89 1087.12,238.69
             1086.05,238.48 1084.33,237.96 1081.97,237.14
             1081.97,237.14 1084.22,227.95 1084.22,227.95
             1086.34,229.17 1087.71,229.86 1088.33,230.02
             1088.94,230.17 1089.57,230.25 1090.20,230.25
             1091.05,230.25 1091.90,229.54 1092.73,228.11
             1093.58,226.67 1094.00,224.81 1094.00,222.52
             1094.00,220.61 1093.50,219.05 1092.50,217.83
             1091.51,216.61 1090.37,216.00 1089.08,216.00
             1089.08,216.00 1084.16,216.00 1084.16,216.00
             1084.16,216.00 1084.16,222.41 1084.16,222.41
             1084.16,227.05 1082.30,230.98 1078.58,234.19
             1074.86,237.40 1070.43,239.00 1065.30,239.00
             1059.50,239.00 1054.50,237.17 1050.30,233.50
             1046.10,229.82 1044.00,225.36 1044.00,220.09
             1044.00,216.55 1045.40,213.53 1048.20,211.02
             1051.00,208.51 1053.60,207.25 1056.00,207.25
             1056.00,207.25 1056.00,185.84 1056.00,185.84 Z
           M 283.00,519.34
           C 285.02,517.68 287.45,516.84 290.30,516.84
             290.30,516.84 357.44,516.84 357.44,516.84
             357.46,516.76 357.55,516.16 357.73,515.03
             357.91,513.91 358.00,512.73 358.00,511.50
             358.00,507.28 356.50,503.49 353.52,500.12
             350.54,496.75 347.74,494.34 345.14,492.91
             345.99,492.36 346.88,493.09 347.78,495.09
             348.70,497.09 349.16,499.23 349.16,501.50
             349.16,505.41 347.62,508.73 344.55,511.48
             341.47,514.23 337.77,515.59 333.42,515.59
             329.48,515.59 326.09,514.11 323.25,511.14
             320.41,508.16 319.00,504.53 319.00,500.23
             319.00,495.79 320.89,492.11 324.67,489.20
             328.46,486.30 332.97,484.84 338.19,484.84
             346.41,484.84 353.47,487.44 359.34,492.62
             365.22,497.80 368.16,504.10 368.16,511.52
             368.16,512.96 368.05,514.34 367.83,515.64
             367.61,516.95 367.27,517.57 366.80,517.53
             366.80,517.53 374.00,516.84 374.00,516.84
             374.00,516.84 374.00,486.03 374.00,486.03
             374.00,486.03 384.16,486.03 384.16,486.03
             384.16,486.03 384.16,550.50 384.16,550.50
             384.16,550.50 374.00,550.50 374.00,550.50
             374.00,550.50 374.00,525.59 374.00,525.59
             374.00,525.59 365.16,525.59 365.16,525.59
             362.89,531.64 358.01,536.71 350.50,540.83
             343.00,544.94 334.38,547.00 324.66,547.00
             318.28,547.00 312.01,546.17 305.84,544.52
             299.69,542.86 293.83,540.45 288.27,537.28
             285.80,535.86 283.81,534.15 282.28,532.16
             280.76,530.16 280.00,528.09 280.00,525.95
             280.00,523.26 281.00,521.05 283.00,519.34 Z
           M 328.44,501.62
           C 328.44,503.09 328.97,504.34 330.05,505.34
             331.12,506.34 332.48,506.84 334.12,506.84
             335.71,506.84 337.04,506.33 338.11,505.30
             339.18,504.27 339.72,503.04 339.72,501.62
             339.72,499.75 339.16,498.18 338.05,496.91
             336.94,495.64 335.63,495.00 334.12,495.00
             332.61,495.00 331.29,495.64 330.14,496.92
             329.00,498.20 328.44,499.76 328.44,501.62 Z
           M 289.44,525.86
           C 289.31,525.86 289.41,526.04 289.73,526.41
             290.07,526.77 290.59,527.30 291.30,528.00
             294.54,531.23 298.97,533.75 304.59,535.55
             310.22,537.35 316.60,538.25 323.75,538.25
             331.78,538.25 338.70,536.80 344.52,533.91
             350.33,531.00 353.72,528.23 354.69,525.59
             354.69,525.59 289.83,525.59 289.83,525.59
             289.74,525.59 289.66,525.64 289.56,525.73
             289.48,525.82 289.44,525.86 289.44,525.86 Z
           M 410.16,523.52
           C 410.16,525.79 410.70,527.65 411.78,529.09
             412.86,530.53 414.10,531.25 415.48,531.25
             417.25,531.25 418.78,530.50 420.06,529.00
             421.35,527.50 422.00,525.67 422.00,523.52
             422.00,521.63 421.47,520.07 420.41,518.84
             419.35,517.62 418.11,517.00 416.69,517.00
             414.86,517.00 413.32,517.63 412.05,518.89
             410.79,520.15 410.16,521.70 410.16,523.52 Z
           M 441.16,517.64
           C 441.16,521.73 441.58,525.02 442.42,527.52
             443.27,530.01 443.94,531.25 444.44,531.25
             444.94,531.25 445.61,530.02 446.45,527.56
             447.30,525.09 447.72,521.79 447.72,517.64
             447.72,514.92 447.30,512.33 446.47,509.86
             445.64,507.38 445.09,505.97 444.80,505.62
             444.08,506.89 443.29,508.74 442.44,511.19
             441.58,513.64 441.16,515.79 441.16,517.64 Z
           M 393.00,517.67
           C 393.00,508.82 396.12,501.30 402.38,495.12
             408.63,488.94 416.19,485.84 425.03,485.84
             429.10,485.84 432.87,486.50 436.33,487.80
             439.80,489.10 442.10,490.41 443.25,491.73
             444.36,490.45 446.41,489.15 449.38,487.83
             452.35,486.51 455.48,485.84 458.75,485.84
             464.99,485.84 470.32,488.55 474.75,493.97
             479.02,499.12 481.16,505.38 481.16,512.73
             481.16,512.73 481.16,512.92 481.16,512.92
             481.16,517.79 479.93,522.51 477.48,527.08
             475.00,531.71 471.02,536.32 465.53,540.89
             465.53,540.89 459.09,532.73 459.09,532.73
             463.53,530.17 466.62,527.25 468.38,523.97
             470.12,520.68 471.00,516.99 471.00,512.91
             471.00,507.76 469.77,503.42 467.31,499.89
             464.86,496.36 462.00,494.59 458.72,494.59
             457.44,494.59 455.90,495.05 454.11,495.97
             452.33,496.89 450.97,497.73 450.03,498.50
             451.61,499.84 453.20,502.32 454.78,505.95
             456.36,509.58 457.16,513.45 457.16,517.58
             457.16,523.50 455.96,528.71 453.58,533.23
             451.19,537.75 448.14,540.00 444.44,540.00
             440.73,540.00 437.68,537.75 435.30,533.23
             432.91,528.71 431.72,523.50 431.72,517.58
             431.72,513.88 432.36,510.30 433.64,506.83
             434.93,503.35 436.35,500.66 437.91,498.77
             436.82,497.86 435.07,496.94 432.64,496.00
             430.22,495.06 427.79,494.59 425.33,494.59
             418.99,494.59 413.59,496.84 409.12,501.34
             404.66,505.84 402.44,511.28 402.44,517.66
             402.44,519.56 402.85,521.44 403.67,523.28
             404.49,525.12 405.19,527.24 405.75,529.62
             403.91,529.09 402.82,528.26 402.48,527.12
             402.16,525.98 402.00,524.81 402.00,523.62
             402.00,519.31 403.47,515.67 406.42,512.70
             409.37,509.73 412.91,508.25 417.03,508.25
             420.97,508.25 424.35,509.73 427.19,512.70
             430.02,515.66 431.44,519.27 431.44,523.53
             431.44,528.05 429.93,531.93 426.92,535.16
             423.91,538.39 420.24,540.00 415.92,540.00
             409.64,540.00 404.25,537.81 399.75,533.44
             395.25,529.06 393.00,523.81 393.00,517.67 Z
           M 507.00,520.39
           C 505.96,521.58 505.44,523.09 505.44,524.92
             505.44,526.75 505.96,528.26 507.00,529.45
             508.05,530.65 509.30,531.25 510.73,531.25
             512.16,531.25 513.39,530.65 514.44,529.45
             515.48,528.26 516.00,526.74 516.00,524.91
             516.00,523.09 515.48,521.58 514.44,520.39
             513.39,519.20 512.16,518.59 510.73,518.59
             509.30,518.59 508.05,519.20 507.00,520.39 Z
           M 554.00,510.64
           C 554.00,506.77 552.90,503.04 550.70,499.47
             548.52,495.89 544.68,492.56 539.19,489.50
             539.19,489.50 546.00,482.91 546.00,482.91
             552.07,486.37 556.61,490.48 559.61,495.23
             562.64,500.10 564.16,505.21 564.16,510.58
             564.16,518.62 561.94,525.54 557.52,531.33
             553.10,537.11 547.75,540.00 541.48,540.00
             537.21,540.00 533.56,538.64 530.53,535.92
             527.51,533.20 526.00,529.88 526.00,525.95
             526.00,525.95 526.00,502.14 526.00,502.14
             526.00,500.10 525.18,498.34 523.55,496.84
             521.91,495.34 519.93,494.59 517.61,494.59
             512.05,494.59 507.29,496.62 503.34,500.67
             499.41,504.71 497.44,509.61 497.44,515.36
             497.44,518.89 497.75,521.88 498.39,524.33
             499.04,526.77 499.36,528.98 499.38,530.98
             497.66,531.17 496.66,530.51 496.39,529.00
             496.13,527.48 496.00,525.76 496.00,523.83
             496.00,520.02 497.46,516.73 500.38,513.98
             503.29,511.23 506.74,509.84 510.72,509.84
             514.72,509.84 518.17,511.32 521.08,514.27
             523.98,517.20 525.44,520.76 525.44,524.92
             525.44,529.14 524.02,532.71 521.17,535.62
             518.33,538.54 514.95,540.00 511.03,540.00
             504.66,540.00 499.23,537.59 494.73,532.78
             490.24,527.97 488.00,522.16 488.00,515.34
             488.00,507.21 490.88,500.26 496.62,494.50
             502.38,488.73 509.32,485.84 517.44,485.84
             522.53,485.84 526.92,487.43 530.61,490.59
             534.30,493.75 536.16,497.66 536.16,502.31
             536.16,502.31 536.16,526.12 536.16,526.12
             536.16,527.55 536.66,528.77 537.67,529.77
             538.69,530.76 539.95,531.25 541.45,531.25
             544.74,531.25 547.66,529.29 550.19,525.38
             552.73,521.45 554.00,516.54 554.00,510.64 Z
           M 614.16,500.95
           C 614.16,500.95 614.16,530.25 614.16,530.25
             614.16,530.25 628.73,530.25 628.73,530.25
             630.30,530.25 631.73,529.21 633.03,527.12
             634.34,525.03 635.00,522.36 635.00,519.09
             635.00,512.20 633.41,506.39 630.25,501.67
             627.08,496.95 623.38,494.59 619.16,494.59
             617.81,494.59 616.64,495.20 615.64,496.42
             614.65,497.64 614.16,499.15 614.16,500.95 Z
           M 619.19,485.84
           C 626.48,485.84 632.63,489.11 637.64,495.62
             642.65,502.15 645.16,509.95 645.16,519.03
             645.16,524.45 643.58,529.13 640.42,533.08
             637.27,537.03 633.36,539.00 628.72,539.00
             628.72,539.00 575.00,539.00 575.00,539.00
             575.00,539.00 575.00,486.97 575.00,486.97
             575.00,486.97 585.16,486.97 585.16,486.97
             585.16,486.97 585.16,530.25 585.16,530.25
             585.16,530.25 604.00,530.25 604.00,530.25
             604.00,530.25 604.00,501.09 604.00,501.09
             604.00,496.81 605.48,493.20 608.44,490.27
             611.41,487.32 614.99,485.84 619.19,485.84 Z
           M 671.16,508.25
           C 671.16,508.25 679.00,508.25 679.00,508.25
             679.00,508.25 679.00,495.59 679.00,495.59
             679.00,495.59 671.16,495.59 671.16,495.59
             671.16,495.59 671.16,508.25 671.16,508.25 Z
           M 659.16,521.02
           C 659.16,523.76 660.23,526.15 662.38,528.19
             664.53,530.23 667.16,531.25 670.25,531.25
             672.64,531.25 674.70,530.48 676.42,528.92
             678.14,527.37 679.00,525.57 679.00,523.52
             679.00,523.52 679.00,517.00 679.00,517.00
             679.00,517.00 663.03,517.00 663.03,517.00
             661.93,517.00 661.00,517.38 660.27,518.12
             659.52,518.88 659.16,519.84 659.16,521.02 Z
           M 661.00,486.84
           C 661.00,486.84 706.80,486.84 706.80,486.84
             706.80,486.84 706.80,495.59 706.80,495.59
             706.80,495.59 689.16,495.59 689.16,495.59
             689.16,495.59 689.16,508.25 689.16,508.25
             689.16,508.25 694.16,508.25 694.16,508.25
             698.38,508.25 701.94,509.73 704.83,512.69
             707.71,515.65 709.16,519.26 709.16,523.53
             709.16,528.01 707.82,531.88 705.16,535.12
             702.49,538.38 699.20,540.00 695.28,540.00
             694.26,540.00 693.21,539.89 692.12,539.69
             691.05,539.48 689.33,538.96 686.97,538.14
             686.97,538.14 689.22,528.95 689.22,528.95
             691.34,530.17 692.71,530.86 693.33,531.02
             693.94,531.17 694.57,531.25 695.20,531.25
             696.05,531.25 696.90,530.54 697.73,529.11
             698.58,527.67 699.00,525.81 699.00,523.52
             699.00,521.61 698.50,520.05 697.50,518.83
             696.51,517.61 695.37,517.00 694.08,517.00
             694.08,517.00 689.16,517.00 689.16,517.00
             689.16,517.00 689.16,523.41 689.16,523.41
             689.16,528.05 687.30,531.98 683.58,535.19
             679.86,538.40 675.43,540.00 670.30,540.00
             664.50,540.00 659.50,538.17 655.30,534.50
             651.10,530.82 649.00,526.36 649.00,521.09
             649.00,517.55 650.40,514.53 653.20,512.02
             656.00,509.51 658.60,508.25 661.00,508.25
             661.00,508.25 661.00,486.84 661.00,486.84 Z
           M 748.88,469.97
           C 748.88,467.70 749.66,465.78 751.25,464.20
             752.83,462.62 754.76,461.83 757.03,461.83
             759.31,461.83 761.22,462.62 762.77,464.20
             764.30,465.79 765.08,467.71 765.08,469.97
             765.08,472.23 764.30,474.14 762.75,475.69
             761.21,477.23 759.30,478.00 757.03,478.00
             754.76,478.00 752.83,477.21 751.25,475.64
             749.66,474.06 748.88,472.17 748.88,469.97 Z
           M 733.94,522.31
           C 733.94,524.53 734.45,526.35 735.48,527.77
             736.52,529.18 737.69,529.89 738.97,529.89
             740.25,529.89 741.41,529.18 742.44,527.77
             743.48,526.35 744.00,524.53 744.00,522.31
             744.00,520.48 743.49,518.97 742.48,517.78
             741.47,516.59 740.30,516.00 738.97,516.00
             737.63,516.00 736.46,516.61 735.45,517.83
             734.44,519.04 733.94,520.53 733.94,522.31 Z
           M 757.22,486.84
           C 757.22,486.84 803.34,486.84 803.34,486.84
             803.34,486.84 803.34,495.78 803.34,495.78
             803.34,495.78 790.17,495.78 790.17,495.78
             790.17,495.78 790.17,538.83 790.17,538.83
             790.17,538.83 779.95,538.83 779.95,538.83
             779.95,538.83 779.95,495.78 779.95,495.78
             779.95,495.78 766.16,495.78 766.16,495.78
             766.16,495.78 766.16,538.83 766.16,538.83
             766.16,538.83 756.05,538.83 756.05,538.83
             756.05,538.83 756.05,512.84 756.05,512.84
             756.05,507.80 754.46,503.51 751.30,499.95
             748.13,496.39 744.38,494.61 740.05,494.61
             735.74,494.61 732.02,496.48 728.88,500.22
             725.73,503.96 724.16,508.55 724.16,513.98
             724.16,516.73 724.72,519.31 725.86,521.75
             726.99,524.18 727.66,526.16 727.86,527.70
             726.84,528.12 726.10,527.62 725.66,526.22
             725.22,524.81 725.00,523.51 725.00,522.31
             725.00,518.07 726.35,514.48 729.06,511.52
             731.77,508.55 735.07,507.06 738.97,507.06
             742.79,507.06 746.07,508.56 748.81,511.55
             751.56,514.54 752.94,518.12 752.94,522.31
             752.94,527.15 751.34,531.30 748.16,534.78
             744.98,538.26 741.06,540.00 736.41,540.00
             730.48,540.00 725.46,537.45 721.36,532.33
             717.25,527.21 715.20,521.11 715.20,514.00
             715.20,506.22 717.60,499.56 722.41,494.02
             727.21,488.46 733.09,485.69 740.06,485.69
             744.61,485.69 748.78,486.63 752.56,488.52
             756.34,490.39 758.13,491.62 757.94,492.22
             757.94,492.22 757.22,486.84 757.22,486.84 Z
           M 885.03,518.20
           C 883.78,519.67 883.16,521.50 883.16,523.67
             883.16,525.84 883.79,527.65 885.06,529.09
             886.34,530.53 887.80,531.25 889.45,531.25
             891.52,531.25 893.30,530.50 894.78,529.00
             896.26,527.50 897.00,525.73 897.00,523.67
             897.00,521.56 896.26,519.75 894.78,518.25
             893.30,516.75 891.52,516.00 889.45,516.00
             887.75,516.00 886.28,516.73 885.03,518.20 Z
           M 941.00,529.84
           C 941.00,529.84 941.00,486.97 941.00,486.97
             941.00,486.97 951.16,486.97 951.16,486.97
             951.16,486.97 951.16,538.59 951.16,538.59
             951.16,538.59 907.02,538.59 907.02,538.59
             907.02,538.59 907.02,532.58 907.02,532.58
             909.09,530.06 910.60,527.29 911.56,524.27
             912.52,521.23 913.00,517.84 913.00,514.08
             913.00,508.67 911.12,504.07 907.38,500.28
             903.63,496.49 899.07,494.59 893.67,494.59
             888.33,494.59 883.79,496.48 880.05,500.25
             876.30,504.01 874.44,508.58 874.44,513.95
             874.44,516.48 874.82,518.98 875.58,521.47
             876.35,523.95 876.85,526.62 877.09,529.48
             875.32,528.80 874.32,527.89 874.08,526.77
             873.84,525.64 873.72,524.59 873.72,523.61
             873.72,519.13 875.24,515.29 878.30,512.08
             881.35,508.86 885.05,507.25 889.42,507.25
             894.08,507.25 898.08,508.84 901.42,512.02
             904.77,515.20 906.44,519.08 906.44,523.67
             906.44,528.18 904.83,532.03 901.61,535.22
             898.40,538.41 894.49,540.00 889.88,540.00
             882.95,540.00 877.07,537.47 872.23,532.41
             867.41,527.34 865.00,521.23 865.00,514.08
             865.00,506.27 867.77,499.61 873.33,494.11
             878.88,488.60 885.59,485.84 893.45,485.84
             901.61,485.84 908.60,488.61 914.42,494.12
             920.24,499.65 923.16,506.28 923.16,514.02
             923.16,517.37 922.72,520.65 921.84,523.86
             920.98,527.07 920.32,529.06 919.86,529.84
             919.86,529.84 941.00,529.84 941.00,529.84 Z
           M 965.00,487.25
           C 965.00,487.25 1011.66,487.25 1011.66,487.25
             1011.66,487.25 1011.66,496.00 1011.66,496.00
             1011.66,496.00 998.16,496.00 998.16,496.00
             998.16,496.00 998.16,539.50 998.16,539.50
             998.16,539.50 988.00,539.50 988.00,539.50
             988.00,539.50 988.00,496.00 988.00,496.00
             988.00,496.00 975.16,496.00 975.16,496.00
             975.16,496.00 975.16,539.50 975.16,539.50
             975.16,539.50 965.00,539.50 965.00,539.50
             965.00,539.50 965.00,487.25 965.00,487.25 Z
           M 1042.00,469.98
           C 1042.00,467.71 1042.79,465.79 1044.36,464.22
             1045.94,462.64 1047.87,461.84 1050.14,461.84
             1052.41,461.84 1054.32,462.64 1055.86,464.22
             1057.40,465.80 1058.17,467.73 1058.17,469.98
             1058.17,472.25 1057.39,474.15 1055.84,475.70
             1054.30,477.25 1052.40,478.02 1050.14,478.02
             1047.87,478.02 1045.94,477.23 1044.36,475.66
             1042.79,474.07 1042.00,472.18 1042.00,469.98 Z
           M 1055.62,501.06
           C 1055.62,501.06 1055.62,530.06 1055.62,530.06
             1055.62,530.06 1070.59,530.06 1070.59,530.06
             1072.22,530.06 1073.70,529.03 1075.03,526.97
             1076.38,524.90 1077.05,522.25 1077.05,519.03
             1077.05,512.22 1075.43,506.48 1072.19,501.80
             1068.95,497.12 1065.15,494.78 1060.80,494.78
             1059.39,494.78 1058.18,495.39 1057.16,496.61
             1056.13,497.82 1055.62,499.30 1055.62,501.06 Z
           M 1060.83,485.84
           C 1068.20,485.84 1074.43,489.11 1079.52,495.62
             1084.61,502.14 1087.16,509.94 1087.16,519.03
             1087.16,524.45 1085.56,529.13 1082.38,533.08
             1079.19,537.03 1075.24,539.00 1070.55,539.00
             1070.55,539.00 1055.98,539.00 1055.98,539.00
             1056.12,539.83 1057.04,541.02 1058.73,542.55
             1060.44,544.08 1062.35,544.84 1064.45,544.84
             1064.45,544.84 1081.20,544.84 1081.20,544.84
             1081.20,544.84 1081.20,553.88 1081.20,553.88
             1081.20,553.88 1069.45,553.88 1069.45,553.88
             1066.90,553.88 1064.49,554.52 1062.23,555.81
             1059.98,557.11 1058.20,558.89 1056.89,561.14
             1054.75,564.80 1051.91,567.65 1048.38,569.70
             1044.83,571.75 1041.08,572.78 1037.12,572.78
             1031.70,572.78 1026.98,571.21 1022.98,568.08
             1018.98,564.94 1016.98,561.05 1016.98,556.41
             1016.98,552.60 1018.36,549.32 1021.11,546.55
             1023.86,543.77 1027.12,542.39 1030.91,542.39
             1030.91,542.39 1042.42,542.39 1042.42,542.39
             1042.42,542.39 1042.42,551.44 1042.42,551.44
             1042.42,551.44 1030.97,551.44 1030.97,551.44
             1029.97,551.44 1029.09,551.90 1028.33,552.83
             1027.58,553.77 1027.20,554.98 1027.20,556.48
             1027.20,558.45 1028.13,560.17 1030.00,561.64
             1031.86,563.11 1034.19,563.84 1036.98,563.84
             1038.83,563.84 1040.55,563.40 1042.16,562.52
             1043.76,561.64 1044.98,560.48 1045.81,559.05
             1047.00,556.89 1048.48,554.92 1050.27,553.14
             1052.05,551.36 1053.11,550.58 1053.45,550.80
             1052.19,550.69 1050.54,549.20 1048.48,546.33
             1046.44,543.46 1045.42,541.02 1045.42,539.00
             1045.42,539.00 1016.98,539.00 1016.98,539.00
             1016.98,539.00 1016.98,487.02 1016.98,487.02
             1016.98,487.02 1027.20,487.02 1027.20,487.02
             1027.20,487.02 1027.20,530.06 1027.20,530.06
             1027.20,530.06 1045.42,530.06 1045.42,530.06
             1045.42,530.06 1045.42,501.05 1045.42,501.05
             1045.42,496.77 1046.93,493.16 1049.94,490.23
             1052.95,487.31 1056.58,485.84 1060.83,485.84 Z
           M 1113.16,508.25
           C 1113.16,508.25 1121.00,508.25 1121.00,508.25
             1121.00,508.25 1121.00,495.59 1121.00,495.59
             1121.00,495.59 1113.16,495.59 1113.16,495.59
             1113.16,495.59 1113.16,508.25 1113.16,508.25 Z
           M 1101.16,521.02
           C 1101.16,523.76 1102.23,526.15 1104.38,528.19
             1106.53,530.23 1109.16,531.25 1112.25,531.25
             1114.64,531.25 1116.70,530.48 1118.42,528.92
             1120.14,527.37 1121.00,525.57 1121.00,523.52
             1121.00,523.52 1121.00,517.00 1121.00,517.00
             1121.00,517.00 1105.03,517.00 1105.03,517.00
             1103.93,517.00 1103.00,517.38 1102.27,518.12
             1101.52,518.88 1101.16,519.84 1101.16,521.02 Z
           M 1103.00,486.84
           C 1103.00,486.84 1148.80,486.84 1148.80,486.84
             1148.80,486.84 1148.80,495.59 1148.80,495.59
             1148.80,495.59 1131.16,495.59 1131.16,495.59
             1131.16,495.59 1131.16,508.25 1131.16,508.25
             1131.16,508.25 1136.16,508.25 1136.16,508.25
             1140.38,508.25 1143.94,509.73 1146.83,512.69
             1149.71,515.65 1151.16,519.26 1151.16,523.53
             1151.16,528.01 1149.82,531.88 1147.16,535.12
             1144.49,538.38 1141.20,540.00 1137.28,540.00
             1136.26,540.00 1135.21,539.89 1134.12,539.69
             1133.05,539.48 1131.33,538.96 1128.97,538.14
             1128.97,538.14 1131.22,528.95 1131.22,528.95
             1133.34,530.17 1134.71,530.86 1135.33,531.02
             1135.94,531.17 1136.57,531.25 1137.20,531.25
             1138.05,531.25 1138.90,530.54 1139.73,529.11
             1140.58,527.67 1141.00,525.81 1141.00,523.52
             1141.00,521.61 1140.50,520.05 1139.50,518.83
             1138.51,517.61 1137.37,517.00 1136.08,517.00
             1136.08,517.00 1131.16,517.00 1131.16,517.00
             1131.16,517.00 1131.16,523.41 1131.16,523.41
             1131.16,528.05 1129.30,531.98 1125.58,535.19
             1121.86,538.40 1117.43,540.00 1112.30,540.00
             1106.50,540.00 1101.50,538.17 1097.30,534.50
             1093.10,530.82 1091.00,526.36 1091.00,521.09
             1091.00,517.55 1092.40,514.53 1095.20,512.02
             1098.00,509.51 1100.60,508.25 1103.00,508.25
             1103.00,508.25 1103.00,486.84 1103.00,486.84 Z
           M 325.16,801.95
           C 325.16,801.95 325.16,831.25 325.16,831.25
             325.16,831.25 339.73,831.25 339.73,831.25
             341.30,831.25 342.73,830.21 344.03,828.12
             345.34,826.03 346.00,823.36 346.00,820.09
             346.00,813.20 344.41,807.39 341.25,802.67
             338.08,797.95 334.38,795.59 330.16,795.59
             328.81,795.59 327.64,796.20 326.64,797.42
             325.65,798.64 325.16,800.15 325.16,801.95 Z
           M 330.19,786.84
           C 337.48,786.84 343.63,790.11 348.64,796.62
             353.65,803.15 356.16,810.95 356.16,820.03
             356.16,825.45 354.58,830.13 351.42,834.08
             348.27,838.03 344.36,840.00 339.72,840.00
             339.72,840.00 286.00,840.00 286.00,840.00
             286.00,840.00 286.00,787.97 286.00,787.97
             286.00,787.97 296.16,787.97 296.16,787.97
             296.16,787.97 296.16,831.25 296.16,831.25
             296.16,831.25 315.00,831.25 315.00,831.25
             315.00,831.25 315.00,802.09 315.00,802.09
             315.00,797.81 316.48,794.20 319.44,791.27
             322.41,788.32 325.99,786.84 330.19,786.84 Z
           M 379.16,824.52
           C 379.16,826.79 379.70,828.65 380.78,830.09
             381.86,831.53 383.10,832.25 384.48,832.25
             386.25,832.25 387.78,831.50 389.06,830.00
             390.35,828.50 391.00,826.67 391.00,824.52
             391.00,822.63 390.47,821.07 389.41,819.84
             388.35,818.62 387.11,818.00 385.69,818.00
             383.86,818.00 382.32,818.63 381.05,819.89
             379.79,821.15 379.16,822.70 379.16,824.52 Z
           M 410.16,818.64
           C 410.16,822.73 410.58,826.02 411.42,828.52
             412.27,831.01 412.94,832.25 413.44,832.25
             413.94,832.25 414.61,831.02 415.45,828.56
             416.30,826.09 416.72,822.79 416.72,818.64
             416.72,815.92 416.30,813.33 415.47,810.86
             414.64,808.38 414.09,806.97 413.80,806.62
             413.08,807.89 412.29,809.74 411.44,812.19
             410.58,814.64 410.16,816.79 410.16,818.64 Z
           M 362.00,818.67
           C 362.00,809.82 365.12,802.30 371.38,796.12
             377.63,789.94 385.19,786.84 394.03,786.84
             398.10,786.84 401.87,787.50 405.33,788.80
             408.80,790.10 411.10,791.41 412.25,792.73
             413.36,791.45 415.41,790.15 418.38,788.83
             421.35,787.51 424.48,786.84 427.75,786.84
             433.99,786.84 439.32,789.55 443.75,794.97
             448.02,800.12 450.16,806.38 450.16,813.73
             450.16,813.73 450.16,813.92 450.16,813.92
             450.16,818.79 448.93,823.51 446.48,828.08
             444.00,832.71 440.02,837.32 434.53,841.89
             434.53,841.89 428.09,833.73 428.09,833.73
             432.53,831.17 435.62,828.25 437.38,824.97
             439.12,821.68 440.00,817.99 440.00,813.91
             440.00,808.76 438.77,804.42 436.31,800.89
             433.86,797.36 431.00,795.59 427.72,795.59
             426.44,795.59 424.90,796.05 423.11,796.97
             421.33,797.89 419.97,798.73 419.03,799.50
             420.61,800.84 422.20,803.32 423.78,806.95
             425.36,810.58 426.16,814.45 426.16,818.58
             426.16,824.50 424.96,829.71 422.58,834.23
             420.19,838.75 417.14,841.00 413.44,841.00
             409.73,841.00 406.68,838.75 404.30,834.23
             401.91,829.71 400.72,824.50 400.72,818.58
             400.72,814.88 401.36,811.30 402.64,807.83
             403.93,804.35 405.35,801.66 406.91,799.77
             405.82,798.86 404.07,797.94 401.64,797.00
             399.22,796.06 396.79,795.59 394.33,795.59
             387.99,795.59 382.59,797.84 378.12,802.34
             373.66,806.84 371.44,812.28 371.44,818.66
             371.44,820.56 371.85,822.44 372.67,824.28
             373.49,826.12 374.19,828.24 374.75,830.62
             372.91,830.09 371.82,829.26 371.48,828.12
             371.16,826.98 371.00,825.81 371.00,824.62
             371.00,820.31 372.47,816.67 375.42,813.70
             378.37,810.73 381.91,809.25 386.03,809.25
             389.97,809.25 393.35,810.73 396.19,813.70
             399.02,816.66 400.44,820.27 400.44,824.53
             400.44,829.05 398.93,832.93 395.92,836.16
             392.91,839.39 389.24,841.00 384.92,841.00
             378.64,841.00 373.25,838.81 368.75,834.44
             364.25,830.06 362.00,824.81 362.00,818.67 Z
           M 476.00,821.39
           C 474.96,822.58 474.44,824.09 474.44,825.92
             474.44,827.75 474.96,829.26 476.00,830.45
             477.05,831.65 478.30,832.25 479.73,832.25
             481.16,832.25 482.39,831.65 483.44,830.45
             484.48,829.26 485.00,827.74 485.00,825.91
             485.00,824.09 484.48,822.58 483.44,821.39
             482.39,820.20 481.16,819.59 479.73,819.59
             478.30,819.59 477.05,820.20 476.00,821.39 Z
           M 523.00,811.64
           C 523.00,807.77 521.90,804.04 519.70,800.47
             517.52,796.89 513.68,793.56 508.19,790.50
             508.19,790.50 515.00,783.91 515.00,783.91
             521.07,787.37 525.61,791.48 528.61,796.23
             531.64,801.10 533.16,806.21 533.16,811.58
             533.16,819.62 530.94,826.54 526.52,832.33
             522.10,838.11 516.75,841.00 510.48,841.00
             506.21,841.00 502.56,839.64 499.53,836.92
             496.51,834.20 495.00,830.88 495.00,826.95
             495.00,826.95 495.00,803.14 495.00,803.14
             495.00,801.10 494.18,799.34 492.55,797.84
             490.91,796.34 488.93,795.59 486.61,795.59
             481.05,795.59 476.29,797.62 472.34,801.67
             468.41,805.71 466.44,810.61 466.44,816.36
             466.44,819.89 466.75,822.88 467.39,825.33
             468.04,827.77 468.36,829.98 468.38,831.98
             466.66,832.17 465.66,831.51 465.39,830.00
             465.13,828.48 465.00,826.76 465.00,824.83
             465.00,821.02 466.46,817.73 469.38,814.98
             472.29,812.23 475.74,810.84 479.72,810.84
             483.72,810.84 487.17,812.32 490.08,815.27
             492.98,818.20 494.44,821.76 494.44,825.92
             494.44,830.14 493.02,833.71 490.17,836.62
             487.33,839.54 483.95,841.00 480.03,841.00
             473.66,841.00 468.23,838.59 463.73,833.78
             459.24,828.97 457.00,823.16 457.00,816.34
             457.00,808.21 459.88,801.26 465.62,795.50
             471.38,789.73 478.32,786.84 486.44,786.84
             491.53,786.84 495.92,788.43 499.61,791.59
             503.30,794.75 505.16,798.66 505.16,803.31
             505.16,803.31 505.16,827.12 505.16,827.12
             505.16,828.55 505.66,829.77 506.67,830.77
             507.69,831.76 508.95,832.25 510.45,832.25
             513.74,832.25 516.66,830.29 519.19,826.38
             521.73,822.45 523.00,817.54 523.00,811.64 Z
           M 583.16,801.95
           C 583.16,801.95 583.16,831.25 583.16,831.25
             583.16,831.25 597.73,831.25 597.73,831.25
             599.30,831.25 600.73,830.21 602.03,828.12
             603.34,826.03 604.00,823.36 604.00,820.09
             604.00,813.20 602.41,807.39 599.25,802.67
             596.08,797.95 592.38,795.59 588.16,795.59
             586.81,795.59 585.64,796.20 584.64,797.42
             583.65,798.64 583.16,800.15 583.16,801.95 Z
           M 588.19,786.84
           C 595.48,786.84 601.63,790.11 606.64,796.62
             611.65,803.15 614.16,810.95 614.16,820.03
             614.16,825.45 612.58,830.13 609.42,834.08
             606.27,838.03 602.36,840.00 597.72,840.00
             597.72,840.00 544.00,840.00 544.00,840.00
             544.00,840.00 544.00,787.97 544.00,787.97
             544.00,787.97 554.16,787.97 554.16,787.97
             554.16,787.97 554.16,831.25 554.16,831.25
             554.16,831.25 573.00,831.25 573.00,831.25
             573.00,831.25 573.00,802.09 573.00,802.09
             573.00,797.81 574.48,794.20 577.44,791.27
             580.41,788.32 583.99,786.84 588.19,786.84 Z
           M 640.16,809.25
           C 640.16,809.25 648.00,809.25 648.00,809.25
             648.00,809.25 648.00,796.59 648.00,796.59
             648.00,796.59 640.16,796.59 640.16,796.59
             640.16,796.59 640.16,809.25 640.16,809.25 Z
           M 628.16,822.02
           C 628.16,824.76 629.23,827.15 631.38,829.19
             633.53,831.23 636.16,832.25 639.25,832.25
             641.64,832.25 643.70,831.48 645.42,829.92
             647.14,828.37 648.00,826.57 648.00,824.52
             648.00,824.52 648.00,818.00 648.00,818.00
             648.00,818.00 632.03,818.00 632.03,818.00
             630.93,818.00 630.00,818.38 629.27,819.12
             628.52,819.88 628.16,820.84 628.16,822.02 Z
           M 630.00,787.84
           C 630.00,787.84 675.80,787.84 675.80,787.84
             675.80,787.84 675.80,796.59 675.80,796.59
             675.80,796.59 658.16,796.59 658.16,796.59
             658.16,796.59 658.16,809.25 658.16,809.25
             658.16,809.25 663.16,809.25 663.16,809.25
             667.38,809.25 670.94,810.73 673.83,813.69
             676.71,816.65 678.16,820.26 678.16,824.53
             678.16,829.01 676.82,832.88 674.16,836.12
             671.49,839.38 668.20,841.00 664.28,841.00
             663.26,841.00 662.21,840.89 661.12,840.69
             660.05,840.48 658.33,839.96 655.97,839.14
             655.97,839.14 658.22,829.95 658.22,829.95
             660.34,831.17 661.71,831.86 662.33,832.02
             662.94,832.17 663.57,832.25 664.20,832.25
             665.05,832.25 665.90,831.54 666.73,830.11
             667.58,828.67 668.00,826.81 668.00,824.52
             668.00,822.61 667.50,821.05 666.50,819.83
             665.51,818.61 664.37,818.00 663.08,818.00
             663.08,818.00 658.16,818.00 658.16,818.00
             658.16,818.00 658.16,824.41 658.16,824.41
             658.16,829.05 656.30,832.98 652.58,836.19
             648.86,839.40 644.43,841.00 639.30,841.00
             633.50,841.00 628.50,839.17 624.30,835.50
             620.10,831.82 618.00,827.36 618.00,822.09
             618.00,818.55 619.40,815.53 622.20,813.02
             625.00,810.51 627.60,809.25 630.00,809.25
             630.00,809.25 630.00,787.84 630.00,787.84 Z
           M 717.88,770.97
           C 717.88,768.70 718.66,766.78 720.25,765.20
             721.83,763.62 723.76,762.83 726.03,762.83
             728.31,762.83 730.22,763.62 731.77,765.20
             733.30,766.79 734.08,768.71 734.08,770.97
             734.08,773.23 733.30,775.14 731.75,776.69
             730.21,778.23 728.30,779.00 726.03,779.00
             723.76,779.00 721.83,778.21 720.25,776.64
             718.66,775.06 717.88,773.17 717.88,770.97 Z
           M 702.94,823.31
           C 702.94,825.53 703.45,827.35 704.48,828.77
             705.52,830.18 706.69,830.89 707.97,830.89
             709.25,830.89 710.41,830.18 711.44,828.77
             712.48,827.35 713.00,825.53 713.00,823.31
             713.00,821.48 712.49,819.97 711.48,818.78
             710.47,817.59 709.30,817.00 707.97,817.00
             706.63,817.00 705.46,817.61 704.45,818.83
             703.44,820.04 702.94,821.53 702.94,823.31 Z
           M 726.22,787.84
           C 726.22,787.84 772.34,787.84 772.34,787.84
             772.34,787.84 772.34,796.78 772.34,796.78
             772.34,796.78 759.17,796.78 759.17,796.78
             759.17,796.78 759.17,839.83 759.17,839.83
             759.17,839.83 748.95,839.83 748.95,839.83
             748.95,839.83 748.95,796.78 748.95,796.78
             748.95,796.78 735.16,796.78 735.16,796.78
             735.16,796.78 735.16,839.83 735.16,839.83
             735.16,839.83 725.05,839.83 725.05,839.83
             725.05,839.83 725.05,813.84 725.05,813.84
             725.05,808.80 723.46,804.51 720.30,800.95
             717.13,797.39 713.38,795.61 709.05,795.61
             704.74,795.61 701.02,797.48 697.88,801.22
             694.73,804.96 693.16,809.55 693.16,814.98
             693.16,817.73 693.72,820.31 694.86,822.75
             695.99,825.18 696.66,827.16 696.86,828.70
             695.84,829.12 695.10,828.62 694.66,827.22
             694.22,825.81 694.00,824.51 694.00,823.31
             694.00,819.07 695.35,815.48 698.06,812.52
             700.77,809.55 704.07,808.06 707.97,808.06
             711.79,808.06 715.07,809.56 717.81,812.55
             720.56,815.54 721.94,819.12 721.94,823.31
             721.94,828.15 720.34,832.30 717.16,835.78
             713.98,839.26 710.06,841.00 705.41,841.00
             699.48,841.00 694.46,838.45 690.36,833.33
             686.25,828.21 684.20,822.11 684.20,815.00
             684.20,807.22 686.60,800.56 691.41,795.02
             696.21,789.46 702.09,786.69 709.06,786.69
             713.61,786.69 717.78,787.63 721.56,789.52
             725.34,791.39 727.13,792.62 726.94,793.22
             726.94,793.22 726.22,787.84 726.22,787.84 Z
           M 824.03,819.20
           C 822.78,820.67 822.16,822.50 822.16,824.67
             822.16,826.84 822.79,828.65 824.06,830.09
             825.34,831.53 826.80,832.25 828.45,832.25
             830.52,832.25 832.30,831.50 833.78,830.00
             835.26,828.50 836.00,826.73 836.00,824.67
             836.00,822.56 835.26,820.75 833.78,819.25
             832.30,817.75 830.52,817.00 828.45,817.00
             826.75,817.00 825.28,817.73 824.03,819.20 Z
           M 880.00,830.84
           C 880.00,830.84 880.00,787.97 880.00,787.97
             880.00,787.97 890.16,787.97 890.16,787.97
             890.16,787.97 890.16,839.59 890.16,839.59
             890.16,839.59 846.02,839.59 846.02,839.59
             846.02,839.59 846.02,833.58 846.02,833.58
             848.09,831.06 849.60,828.29 850.56,825.27
             851.52,822.23 852.00,818.84 852.00,815.08
             852.00,809.67 850.12,805.07 846.38,801.28
             842.63,797.49 838.07,795.59 832.67,795.59
             827.33,795.59 822.79,797.48 819.05,801.25
             815.30,805.01 813.44,809.58 813.44,814.95
             813.44,817.48 813.82,819.98 814.58,822.47
             815.35,824.95 815.85,827.62 816.09,830.48
             814.32,829.80 813.32,828.89 813.08,827.77
             812.84,826.64 812.72,825.59 812.72,824.61
             812.72,820.13 814.24,816.29 817.30,813.08
             820.35,809.86 824.05,808.25 828.42,808.25
             833.08,808.25 837.08,809.84 840.42,813.02
             843.77,816.20 845.44,820.08 845.44,824.67
             845.44,829.18 843.83,833.03 840.61,836.22
             837.40,839.41 833.49,841.00 828.88,841.00
             821.95,841.00 816.07,838.47 811.23,833.41
             806.41,828.34 804.00,822.23 804.00,815.08
             804.00,807.27 806.77,800.61 812.33,795.11
             817.88,789.60 824.59,786.84 832.45,786.84
             840.61,786.84 847.60,789.61 853.42,795.12
             859.24,800.65 862.16,807.28 862.16,815.02
             862.16,818.37 861.72,821.65 860.84,824.86
             859.98,828.07 859.32,830.06 858.86,830.84
             858.86,830.84 880.00,830.84 880.00,830.84 Z
           M 904.00,788.25
           C 904.00,788.25 950.66,788.25 950.66,788.25
             950.66,788.25 950.66,797.00 950.66,797.00
             950.66,797.00 937.16,797.00 937.16,797.00
             937.16,797.00 937.16,840.50 937.16,840.50
             937.16,840.50 927.00,840.50 927.00,840.50
             927.00,840.50 927.00,797.00 927.00,797.00
             927.00,797.00 914.16,797.00 914.16,797.00
             914.16,797.00 914.16,840.50 914.16,840.50
             914.16,840.50 904.00,840.50 904.00,840.50
             904.00,840.50 904.00,788.25 904.00,788.25 Z
           M 981.00,770.98
           C 981.00,768.71 981.79,766.79 983.36,765.22
             984.94,763.64 986.87,762.84 989.14,762.84
             991.41,762.84 993.32,763.64 994.86,765.22
             996.40,766.80 997.17,768.73 997.17,770.98
             997.17,773.25 996.39,775.15 994.84,776.70
             993.30,778.25 991.40,779.02 989.14,779.02
             986.87,779.02 984.94,778.23 983.36,776.66
             981.79,775.07 981.00,773.18 981.00,770.98 Z
           M 994.62,802.06
           C 994.62,802.06 994.62,831.06 994.62,831.06
             994.62,831.06 1009.59,831.06 1009.59,831.06
             1011.22,831.06 1012.70,830.03 1014.03,827.97
             1015.38,825.90 1016.05,823.25 1016.05,820.03
             1016.05,813.22 1014.43,807.48 1011.19,802.80
             1007.95,798.12 1004.15,795.78 999.80,795.78
             998.39,795.78 997.18,796.39 996.16,797.61
             995.13,798.82 994.62,800.30 994.62,802.06 Z
           M 999.83,786.84
           C 1007.20,786.84 1013.43,790.11 1018.52,796.62
             1023.61,803.14 1026.16,810.94 1026.16,820.03
             1026.16,825.45 1024.56,830.13 1021.38,834.08
             1018.19,838.03 1014.24,840.00 1009.55,840.00
             1009.55,840.00 994.98,840.00 994.98,840.00
             995.12,840.83 996.04,842.02 997.73,843.55
             999.44,845.08 1001.35,845.84 1003.45,845.84
             1003.45,845.84 1020.20,845.84 1020.20,845.84
             1020.20,845.84 1020.20,854.88 1020.20,854.88
             1020.20,854.88 1008.45,854.88 1008.45,854.88
             1005.90,854.88 1003.49,855.52 1001.23,856.81
             998.98,858.11 997.20,859.89 995.89,862.14
             993.75,865.80 990.91,868.65 987.38,870.70
             983.83,872.75 980.08,873.78 976.12,873.78
             970.70,873.78 965.98,872.21 961.98,869.08
             957.98,865.94 955.98,862.05 955.98,857.41
             955.98,853.60 957.36,850.32 960.11,847.55
             962.86,844.77 966.12,843.39 969.91,843.39
             969.91,843.39 981.42,843.39 981.42,843.39
             981.42,843.39 981.42,852.44 981.42,852.44
             981.42,852.44 969.97,852.44 969.97,852.44
             968.97,852.44 968.09,852.90 967.33,853.83
             966.58,854.77 966.20,855.98 966.20,857.48
             966.20,859.45 967.13,861.17 969.00,862.64
             970.86,864.11 973.19,864.84 975.98,864.84
             977.83,864.84 979.55,864.40 981.16,863.52
             982.76,862.64 983.98,861.48 984.81,860.05
             986.00,857.89 987.48,855.92 989.27,854.14
             991.05,852.36 992.11,851.58 992.45,851.80
             991.19,851.69 989.54,850.20 987.48,847.33
             985.44,844.46 984.42,842.02 984.42,840.00
             984.42,840.00 955.98,840.00 955.98,840.00
             955.98,840.00 955.98,788.02 955.98,788.02
             955.98,788.02 966.20,788.02 966.20,788.02
             966.20,788.02 966.20,831.06 966.20,831.06
             966.20,831.06 984.42,831.06 984.42,831.06
             984.42,831.06 984.42,802.05 984.42,802.05
             984.42,797.77 985.93,794.16 988.94,791.23
             991.95,788.31 995.58,786.84 999.83,786.84 Z
           M 1052.16,809.25
           C 1052.16,809.25 1060.00,809.25 1060.00,809.25
             1060.00,809.25 1060.00,796.59 1060.00,796.59
             1060.00,796.59 1052.16,796.59 1052.16,796.59
             1052.16,796.59 1052.16,809.25 1052.16,809.25 Z
           M 1040.16,822.02
           C 1040.16,824.76 1041.23,827.15 1043.38,829.19
             1045.53,831.23 1048.16,832.25 1051.25,832.25
             1053.64,832.25 1055.70,831.48 1057.42,829.92
             1059.14,828.37 1060.00,826.57 1060.00,824.52
             1060.00,824.52 1060.00,818.00 1060.00,818.00
             1060.00,818.00 1044.03,818.00 1044.03,818.00
             1042.93,818.00 1042.00,818.38 1041.27,819.12
             1040.52,819.88 1040.16,820.84 1040.16,822.02 Z
           M 1042.00,787.84
           C 1042.00,787.84 1087.80,787.84 1087.80,787.84
             1087.80,787.84 1087.80,796.59 1087.80,796.59
             1087.80,796.59 1070.16,796.59 1070.16,796.59
             1070.16,796.59 1070.16,809.25 1070.16,809.25
             1070.16,809.25 1075.16,809.25 1075.16,809.25
             1079.38,809.25 1082.94,810.73 1085.83,813.69
             1088.71,816.65 1090.16,820.26 1090.16,824.53
             1090.16,829.01 1088.82,832.88 1086.16,836.12
             1083.49,839.38 1080.20,841.00 1076.28,841.00
             1075.26,841.00 1074.21,840.89 1073.12,840.69
             1072.05,840.48 1070.33,839.96 1067.97,839.14
             1067.97,839.14 1070.22,829.95 1070.22,829.95
             1072.34,831.17 1073.71,831.86 1074.33,832.02
             1074.94,832.17 1075.57,832.25 1076.20,832.25
             1077.05,832.25 1077.90,831.54 1078.73,830.11
             1079.58,828.67 1080.00,826.81 1080.00,824.52
             1080.00,822.61 1079.50,821.05 1078.50,819.83
             1077.51,818.61 1076.37,818.00 1075.08,818.00
             1075.08,818.00 1070.16,818.00 1070.16,818.00
             1070.16,818.00 1070.16,824.41 1070.16,824.41
             1070.16,829.05 1068.30,832.98 1064.58,836.19
             1060.86,839.40 1056.43,841.00 1051.30,841.00
             1045.50,841.00 1040.50,839.17 1036.30,835.50
             1032.10,831.82 1030.00,827.36 1030.00,822.09
             1030.00,818.55 1031.40,815.53 1034.20,813.02
             1037.00,810.51 1039.60,809.25 1042.00,809.25
             1042.00,809.25 1042.00,787.84 1042.00,787.84 Z" />
</svg>
