<?xml version="1.0" encoding="UTF-8" standalone="no"?>
<!DOCTYPE svg PUBLIC "-//W3C//DTD SVG 20010904//EN"
              "http://www.w3.org/TR/2001/REC-SVG-20010904/DTD/svg10.dtd">

<svg xmlns="http://www.w3.org/2000/svg"
     width="6.4in" height="3.6in"
     viewBox="0 0 1920 1080">
  <path id="Path #1"
        fill="none" stroke="black" stroke-width="1"
        d="M 251.16,284.25
           C 251.16,284.25 259.00,284.25 259.00,284.25
             259.00,284.25 259.00,271.59 259.00,271.59
             259.00,271.59 251.16,271.59 251.16,271.59
             251.16,271.59 251.16,284.25 251.16,284.25 Z
           M 239.16,297.02
           C 239.16,299.76 240.23,302.15 242.38,304.19
             244.53,306.23 247.16,307.25 250.25,307.25
             252.64,307.25 254.70,306.48 256.42,304.92
             258.14,303.37 259.00,301.57 259.00,299.52
             259.00,299.52 259.00,293.00 259.00,293.00
             259.00,293.00 243.03,293.00 243.03,293.00
             241.93,293.00 241.00,293.38 240.27,294.12
             239.52,294.88 239.16,295.84 239.16,297.02 Z
           M 241.00,262.84
           C 241.00,262.84 286.80,262.84 286.80,262.84
             286.80,262.84 286.80,271.59 286.80,271.59
             286.80,271.59 269.16,271.59 269.16,271.59
             269.16,271.59 269.16,284.25 269.16,284.25
             269.16,284.25 274.16,284.25 274.16,284.25
             278.38,284.25 281.94,285.73 284.83,288.69
             287.71,291.65 289.16,295.26 289.16,299.53
             289.16,304.01 287.82,307.88 285.16,311.12
             282.49,314.38 279.20,316.00 275.28,316.00
             274.26,316.00 273.21,315.89 272.12,315.69
             271.05,315.48 269.33,314.96 266.97,314.14
             266.97,314.14 269.22,304.95 269.22,304.95
             271.34,306.17 272.71,306.86 273.33,307.02
             273.94,307.17 274.57,307.25 275.20,307.25
             276.05,307.25 276.90,306.54 277.73,305.11
             278.58,303.67 279.00,301.81 279.00,299.52
             279.00,297.61 278.50,296.05 277.50,294.83
             276.51,293.61 275.37,293.00 274.08,293.00
             274.08,293.00 269.16,293.00 269.16,293.00
             269.16,293.00 269.16,299.41 269.16,299.41
             269.16,304.05 267.30,307.98 263.58,311.19
             259.86,314.40 255.43,316.00 250.30,316.00
             244.50,316.00 239.50,314.17 235.30,310.50
             231.10,306.82 229.00,302.36 229.00,297.09
             229.00,293.55 230.40,290.53 233.20,288.02
             236.00,285.51 238.60,284.25 241.00,284.25
             241.00,284.25 241.00,262.84 241.00,262.84 Z
           M 312.16,299.52
           C 312.16,301.79 312.70,303.65 313.78,305.09
             314.86,306.53 316.10,307.25 317.48,307.25
             319.25,307.25 320.78,306.50 322.06,305.00
             323.35,303.50 324.00,301.67 324.00,299.52
             324.00,297.63 323.47,296.07 322.41,294.84
             321.35,293.62 320.11,293.00 318.69,293.00
             316.86,293.00 315.32,293.63 314.05,294.89
             312.79,296.15 312.16,297.70 312.16,299.52 Z
           M 343.16,293.64
           C 343.16,297.73 343.58,301.02 344.42,303.52
             345.27,306.01 345.94,307.25 346.44,307.25
             346.94,307.25 347.61,306.02 348.45,303.56
             349.30,301.09 349.72,297.79 349.72,293.64
             349.72,290.92 349.30,288.33 348.47,285.86
             347.64,283.38 347.09,281.97 346.80,281.62
             346.08,282.89 345.29,284.74 344.44,287.19
             343.58,289.64 343.16,291.79 343.16,293.64 Z
           M 295.00,293.67
           C 295.00,284.82 298.12,277.30 304.38,271.12
             310.63,264.94 318.19,261.84 327.03,261.84
             331.10,261.84 334.87,262.50 338.33,263.80
             341.80,265.10 344.10,266.41 345.25,267.73
             346.36,266.45 348.41,265.15 351.38,263.83
             354.35,262.51 357.48,261.84 360.75,261.84
             366.99,261.84 372.32,264.55 376.75,269.97
             381.02,275.12 383.16,281.38 383.16,288.73
             383.16,288.73 383.16,288.92 383.16,288.92
             383.16,293.79 381.93,298.51 379.48,303.08
             377.00,307.71 373.02,312.32 367.53,316.89
             367.53,316.89 361.09,308.73 361.09,308.73
             365.53,306.17 368.62,303.25 370.38,299.97
             372.12,296.68 373.00,292.99 373.00,288.91
             373.00,283.76 371.77,279.42 369.31,275.89
             366.86,272.36 364.00,270.59 360.72,270.59
             359.44,270.59 357.90,271.05 356.11,271.97
             354.33,272.89 352.97,273.73 352.03,274.50
             353.61,275.84 355.20,278.32 356.78,281.95
             358.36,285.58 359.16,289.45 359.16,293.58
             359.16,299.50 357.96,304.71 355.58,309.23
             353.19,313.75 350.14,316.00 346.44,316.00
             342.73,316.00 339.68,313.75 337.30,309.23
             334.91,304.71 333.72,299.50 333.72,293.58
             333.72,289.88 334.36,286.30 335.64,282.83
             336.93,279.35 338.35,276.66 339.91,274.77
             338.82,273.86 337.07,272.94 334.64,272.00
             332.22,271.06 329.79,270.59 327.33,270.59
             320.99,270.59 315.59,272.84 311.12,277.34
             306.66,281.84 304.44,287.28 304.44,293.66
             304.44,295.56 304.85,297.44 305.67,299.28
             306.49,301.12 307.19,303.24 307.75,305.62
             305.91,305.09 304.82,304.26 304.48,303.12
             304.16,301.98 304.00,300.81 304.00,299.62
             304.00,295.31 305.47,291.67 308.42,288.70
             311.37,285.73 314.91,284.25 319.03,284.25
             322.97,284.25 326.35,285.73 329.19,288.70
             332.02,291.66 333.44,295.27 333.44,299.53
             333.44,304.05 331.93,307.93 328.92,311.16
             325.91,314.39 322.24,316.00 317.92,316.00
             311.64,316.00 306.25,313.81 301.75,309.44
             297.25,305.06 295.00,299.81 295.00,293.67 Z
           M 409.00,296.39
           C 407.96,297.58 407.44,299.09 407.44,300.92
             407.44,302.75 407.96,304.26 409.00,305.45
             410.05,306.65 411.30,307.25 412.73,307.25
             414.16,307.25 415.39,306.65 416.44,305.45
             417.48,304.26 418.00,302.74 418.00,300.91
             418.00,299.09 417.48,297.58 416.44,296.39
             415.39,295.20 414.16,294.59 412.73,294.59
             411.30,294.59 410.05,295.20 409.00,296.39 Z
           M 456.00,286.64
           C 456.00,282.77 454.90,279.04 452.70,275.47
             450.52,271.89 446.68,268.56 441.19,265.50
             441.19,265.50 448.00,258.91 448.00,258.91
             454.07,262.37 458.61,266.48 461.61,271.23
             464.64,276.10 466.16,281.21 466.16,286.58
             466.16,294.62 463.94,301.54 459.52,307.33
             455.10,313.11 449.75,316.00 443.48,316.00
             439.21,316.00 435.56,314.64 432.53,311.92
             429.51,309.20 428.00,305.88 428.00,301.95
             428.00,301.95 428.00,278.14 428.00,278.14
             428.00,276.10 427.18,274.34 425.55,272.84
             423.91,271.34 421.93,270.59 419.61,270.59
             414.05,270.59 409.29,272.62 405.34,276.67
             401.41,280.71 399.44,285.61 399.44,291.36
             399.44,294.89 399.75,297.88 400.39,300.33
             401.04,302.77 401.36,304.98 401.38,306.98
             399.66,307.17 398.66,306.51 398.39,305.00
             398.13,303.48 398.00,301.76 398.00,299.83
             398.00,296.02 399.46,292.73 402.38,289.98
             405.29,287.23 408.74,285.84 412.72,285.84
             416.72,285.84 420.17,287.32 423.08,290.27
             425.98,293.20 427.44,296.76 427.44,300.92
             427.44,305.14 426.02,308.71 423.17,311.62
             420.33,314.54 416.95,316.00 413.03,316.00
             406.66,316.00 401.23,313.59 396.73,308.78
             392.24,303.97 390.00,298.16 390.00,291.34
             390.00,283.21 392.88,276.26 398.62,270.50
             404.38,264.73 411.32,261.84 419.44,261.84
             424.53,261.84 428.92,263.43 432.61,266.59
             436.30,269.75 438.16,273.66 438.16,278.31
             438.16,278.31 438.16,302.12 438.16,302.12
             438.16,303.55 438.66,304.77 439.67,305.77
             440.69,306.76 441.95,307.25 443.45,307.25
             446.74,307.25 449.66,305.29 452.19,301.38
             454.73,297.45 456.00,292.54 456.00,286.64 Z
           M 516.16,276.95
           C 516.16,276.95 516.16,306.25 516.16,306.25
             516.16,306.25 530.73,306.25 530.73,306.25
             532.30,306.25 533.73,305.21 535.03,303.12
             536.34,301.03 537.00,298.36 537.00,295.09
             537.00,288.20 535.41,282.39 532.25,277.67
             529.08,272.95 525.38,270.59 521.16,270.59
             519.81,270.59 518.64,271.20 517.64,272.42
             516.65,273.64 516.16,275.15 516.16,276.95 Z
           M 521.19,261.84
           C 528.48,261.84 534.63,265.11 539.64,271.62
             544.65,278.15 547.16,285.95 547.16,295.03
             547.16,300.45 545.58,305.13 542.42,309.08
             539.27,313.03 535.36,315.00 530.72,315.00
             530.72,315.00 477.00,315.00 477.00,315.00
             477.00,315.00 477.00,262.97 477.00,262.97
             477.00,262.97 487.16,262.97 487.16,262.97
             487.16,262.97 487.16,306.25 487.16,306.25
             487.16,306.25 506.00,306.25 506.00,306.25
             506.00,306.25 506.00,277.09 506.00,277.09
             506.00,272.81 507.48,269.20 510.44,266.27
             513.41,263.32 516.99,261.84 521.19,261.84 Z
           M 573.16,284.25
           C 573.16,284.25 581.00,284.25 581.00,284.25
             581.00,284.25 581.00,271.59 581.00,271.59
             581.00,271.59 573.16,271.59 573.16,271.59
             573.16,271.59 573.16,284.25 573.16,284.25 Z
           M 561.16,297.02
           C 561.16,299.76 562.23,302.15 564.38,304.19
             566.53,306.23 569.16,307.25 572.25,307.25
             574.64,307.25 576.70,306.48 578.42,304.92
             580.14,303.37 581.00,301.57 581.00,299.52
             581.00,299.52 581.00,293.00 581.00,293.00
             581.00,293.00 565.03,293.00 565.03,293.00
             563.93,293.00 563.00,293.38 562.27,294.12
             561.52,294.88 561.16,295.84 561.16,297.02 Z
           M 563.00,262.84
           C 563.00,262.84 608.80,262.84 608.80,262.84
             608.80,262.84 608.80,271.59 608.80,271.59
             608.80,271.59 591.16,271.59 591.16,271.59
             591.16,271.59 591.16,284.25 591.16,284.25
             591.16,284.25 596.16,284.25 596.16,284.25
             600.38,284.25 603.94,285.73 606.83,288.69
             609.71,291.65 611.16,295.26 611.16,299.53
             611.16,304.01 609.82,307.88 607.16,311.12
             604.49,314.38 601.20,316.00 597.28,316.00
             596.26,316.00 595.21,315.89 594.12,315.69
             593.05,315.48 591.33,314.96 588.97,314.14
             588.97,314.14 591.22,304.95 591.22,304.95
             593.34,306.17 594.71,306.86 595.33,307.02
             595.94,307.17 596.57,307.25 597.20,307.25
             598.05,307.25 598.90,306.54 599.73,305.11
             600.58,303.67 601.00,301.81 601.00,299.52
             601.00,297.61 600.50,296.05 599.50,294.83
             598.51,293.61 597.37,293.00 596.08,293.00
             596.08,293.00 591.16,293.00 591.16,293.00
             591.16,293.00 591.16,299.41 591.16,299.41
             591.16,304.05 589.30,307.98 585.58,311.19
             581.86,314.40 577.43,316.00 572.30,316.00
             566.50,316.00 561.50,314.17 557.30,310.50
             553.10,306.82 551.00,302.36 551.00,297.09
             551.00,293.55 552.40,290.53 555.20,288.02
             558.00,285.51 560.60,284.25 563.00,284.25
             563.00,284.25 563.00,262.84 563.00,262.84 Z
           M 650.88,245.97
           C 650.88,243.70 651.66,241.78 653.25,240.20
             654.83,238.62 656.76,237.83 659.03,237.83
             661.31,237.83 663.22,238.62 664.77,240.20
             666.30,241.79 667.08,243.71 667.08,245.97
             667.08,248.23 666.30,250.14 664.75,251.69
             663.21,253.23 661.30,254.00 659.03,254.00
             656.76,254.00 654.83,253.21 653.25,251.64
             651.66,250.06 650.88,248.17 650.88,245.97 Z
           M 635.94,298.31
           C 635.94,300.53 636.45,302.35 637.48,303.77
             638.52,305.18 639.69,305.89 640.97,305.89
             642.25,305.89 643.41,305.18 644.44,303.77
             645.48,302.35 646.00,300.53 646.00,298.31
             646.00,296.48 645.49,294.97 644.48,293.78
             643.47,292.59 642.30,292.00 640.97,292.00
             639.63,292.00 638.46,292.61 637.45,293.83
             636.44,295.04 635.94,296.53 635.94,298.31 Z
           M 659.22,262.84
           C 659.22,262.84 705.34,262.84 705.34,262.84
             705.34,262.84 705.34,271.78 705.34,271.78
             705.34,271.78 692.17,271.78 692.17,271.78
             692.17,271.78 692.17,314.83 692.17,314.83
             692.17,314.83 681.95,314.83 681.95,314.83
             681.95,314.83 681.95,271.78 681.95,271.78
             681.95,271.78 668.16,271.78 668.16,271.78
             668.16,271.78 668.16,314.83 668.16,314.83
             668.16,314.83 658.05,314.83 658.05,314.83
             658.05,314.83 658.05,288.84 658.05,288.84
             658.05,283.80 656.46,279.51 653.30,275.95
             650.13,272.39 646.38,270.61 642.05,270.61
             637.74,270.61 634.02,272.48 630.88,276.22
             627.73,279.96 626.16,284.55 626.16,289.98
             626.16,292.73 626.72,295.31 627.86,297.75
             628.99,300.18 629.66,302.16 629.86,303.70
             628.84,304.12 628.10,303.62 627.66,302.22
             627.22,300.81 627.00,299.51 627.00,298.31
             627.00,294.07 628.35,290.48 631.06,287.52
             633.77,284.55 637.07,283.06 640.97,283.06
             644.79,283.06 648.07,284.56 650.81,287.55
             653.56,290.54 654.94,294.12 654.94,298.31
             654.94,303.15 653.34,307.30 650.16,310.78
             646.98,314.26 643.06,316.00 638.41,316.00
             632.48,316.00 627.46,313.45 623.36,308.33
             619.25,303.21 617.20,297.11 617.20,290.00
             617.20,282.22 619.60,275.56 624.41,270.02
             629.21,264.46 635.09,261.69 642.06,261.69
             646.61,261.69 650.78,262.63 654.56,264.52
             658.34,266.39 660.13,267.62 659.94,268.22
             659.94,268.22 659.22,262.84 659.22,262.84 Z
           M 757.03,294.20
           C 755.78,295.67 755.16,297.50 755.16,299.67
             755.16,301.84 755.79,303.65 757.06,305.09
             758.34,306.53 759.80,307.25 761.45,307.25
             763.52,307.25 765.30,306.50 766.78,305.00
             768.26,303.50 769.00,301.73 769.00,299.67
             769.00,297.56 768.26,295.75 766.78,294.25
             765.30,292.75 763.52,292.00 761.45,292.00
             759.75,292.00 758.28,292.73 757.03,294.20 Z
           M 813.00,305.84
           C 813.00,305.84 813.00,262.97 813.00,262.97
             813.00,262.97 823.16,262.97 823.16,262.97
             823.16,262.97 823.16,314.59 823.16,314.59
             823.16,314.59 779.02,314.59 779.02,314.59
             779.02,314.59 779.02,308.58 779.02,308.58
             781.09,306.06 782.60,303.29 783.56,300.27
             784.52,297.23 785.00,293.84 785.00,290.08
             785.00,284.67 783.12,280.07 779.38,276.28
             775.63,272.49 771.07,270.59 765.67,270.59
             760.33,270.59 755.79,272.48 752.05,276.25
             748.30,280.01 746.44,284.58 746.44,289.95
             746.44,292.48 746.82,294.98 747.58,297.47
             748.35,299.95 748.85,302.62 749.09,305.48
             747.32,304.80 746.32,303.89 746.08,302.77
             745.84,301.64 745.72,300.59 745.72,299.61
             745.72,295.13 747.24,291.29 750.30,288.08
             753.35,284.86 757.05,283.25 761.42,283.25
             766.08,283.25 770.08,284.84 773.42,288.02
             776.77,291.20 778.44,295.08 778.44,299.67
             778.44,304.18 776.83,308.03 773.61,311.22
             770.40,314.41 766.49,316.00 761.88,316.00
             754.95,316.00 749.07,313.47 744.23,308.41
             739.41,303.34 737.00,297.23 737.00,290.08
             737.00,282.27 739.77,275.61 745.33,270.11
             750.88,264.60 757.59,261.84 765.45,261.84
             773.61,261.84 780.60,264.61 786.42,270.12
             792.24,275.65 795.16,282.28 795.16,290.02
             795.16,293.37 794.72,296.65 793.84,299.86
             792.98,303.07 792.32,305.06 791.86,305.84
             791.86,305.84 813.00,305.84 813.00,305.84 Z
           M 837.00,263.25
           C 837.00,263.25 883.66,263.25 883.66,263.25
             883.66,263.25 883.66,272.00 883.66,272.00
             883.66,272.00 870.16,272.00 870.16,272.00
             870.16,272.00 870.16,315.50 870.16,315.50
             870.16,315.50 860.00,315.50 860.00,315.50
             860.00,315.50 860.00,272.00 860.00,272.00
             860.00,272.00 847.16,272.00 847.16,272.00
             847.16,272.00 847.16,315.50 847.16,315.50
             847.16,315.50 837.00,315.50 837.00,315.50
             837.00,315.50 837.00,263.25 837.00,263.25 Z
           M 914.00,245.98
           C 914.00,243.71 914.79,241.79 916.36,240.22
             917.94,238.64 919.87,237.84 922.14,237.84
             924.41,237.84 926.32,238.64 927.86,240.22
             929.40,241.80 930.17,243.73 930.17,245.98
             930.17,248.25 929.39,250.15 927.84,251.70
             926.30,253.25 924.40,254.02 922.14,254.02
             919.87,254.02 917.94,253.23 916.36,251.66
             914.79,250.07 914.00,248.18 914.00,245.98 Z
           M 927.62,277.06
           C 927.62,277.06 927.62,306.06 927.62,306.06
             927.62,306.06 942.59,306.06 942.59,306.06
             944.22,306.06 945.70,305.03 947.03,302.97
             948.38,300.90 949.05,298.25 949.05,295.03
             949.05,288.22 947.43,282.48 944.19,277.80
             940.95,273.12 937.15,270.78 932.80,270.78
             931.39,270.78 930.18,271.39 929.16,272.61
             928.13,273.82 927.62,275.30 927.62,277.06 Z
           M 932.83,261.84
           C 940.20,261.84 946.43,265.11 951.52,271.62
             956.61,278.14 959.16,285.94 959.16,295.03
             959.16,300.45 957.56,305.13 954.38,309.08
             951.19,313.03 947.24,315.00 942.55,315.00
             942.55,315.00 927.98,315.00 927.98,315.00
             928.12,315.83 929.04,317.02 930.73,318.55
             932.44,320.08 934.35,320.84 936.45,320.84
             936.45,320.84 953.20,320.84 953.20,320.84
             953.20,320.84 953.20,329.88 953.20,329.88
             953.20,329.88 941.45,329.88 941.45,329.88
             938.90,329.88 936.49,330.52 934.23,331.81
             931.98,333.11 930.20,334.89 928.89,337.14
             926.75,340.80 923.91,343.65 920.38,345.70
             916.83,347.75 913.08,348.78 909.12,348.78
             903.70,348.78 898.98,347.21 894.98,344.08
             890.98,340.94 888.98,337.05 888.98,332.41
             888.98,328.60 890.36,325.32 893.11,322.55
             895.86,319.77 899.12,318.39 902.91,318.39
             902.91,318.39 914.42,318.39 914.42,318.39
             914.42,318.39 914.42,327.44 914.42,327.44
             914.42,327.44 902.97,327.44 902.97,327.44
             901.97,327.44 901.09,327.90 900.33,328.83
             899.58,329.77 899.20,330.98 899.20,332.48
             899.20,334.45 900.13,336.17 902.00,337.64
             903.86,339.11 906.19,339.84 908.98,339.84
             910.83,339.84 912.55,339.40 914.16,338.52
             915.76,337.64 916.98,336.48 917.81,335.05
             919.00,332.89 920.48,330.92 922.27,329.14
             924.05,327.36 925.11,326.58 925.45,326.80
             924.19,326.69 922.54,325.20 920.48,322.33
             918.44,319.46 917.42,317.02 917.42,315.00
             917.42,315.00 888.98,315.00 888.98,315.00
             888.98,315.00 888.98,263.02 888.98,263.02
             888.98,263.02 899.20,263.02 899.20,263.02
             899.20,263.02 899.20,306.06 899.20,306.06
             899.20,306.06 917.42,306.06 917.42,306.06
             917.42,306.06 917.42,277.05 917.42,277.05
             917.42,272.77 918.93,269.16 921.94,266.23
             924.95,263.31 928.58,261.84 932.83,261.84 Z
           M 985.16,284.25
           C 985.16,284.25 993.00,284.25 993.00,284.25
             993.00,284.25 993.00,271.59 993.00,271.59
             993.00,271.59 985.16,271.59 985.16,271.59
             985.16,271.59 985.16,284.25 985.16,284.25 Z
           M 973.16,297.02
           C 973.16,299.76 974.23,302.15 976.38,304.19
             978.53,306.23 981.16,307.25 984.25,307.25
             986.64,307.25 988.70,306.48 990.42,304.92
             992.14,303.37 993.00,301.57 993.00,299.52
             993.00,299.52 993.00,293.00 993.00,293.00
             993.00,293.00 977.03,293.00 977.03,293.00
             975.93,293.00 975.00,293.38 974.27,294.12
             973.52,294.88 973.16,295.84 973.16,297.02 Z
           M 975.00,262.84
           C 975.00,262.84 1020.80,262.84 1020.80,262.84
             1020.80,262.84 1020.80,271.59 1020.80,271.59
             1020.80,271.59 1003.16,271.59 1003.16,271.59
             1003.16,271.59 1003.16,284.25 1003.16,284.25
             1003.16,284.25 1008.16,284.25 1008.16,284.25
             1012.38,284.25 1015.94,285.73 1018.83,288.69
             1021.71,291.65 1023.16,295.26 1023.16,299.53
             1023.16,304.01 1021.82,307.88 1019.16,311.12
             1016.49,314.38 1013.20,316.00 1009.28,316.00
             1008.26,316.00 1007.21,315.89 1006.12,315.69
             1005.05,315.48 1003.33,314.96 1000.97,314.14
             1000.97,314.14 1003.22,304.95 1003.22,304.95
             1005.34,306.17 1006.71,306.86 1007.33,307.02
             1007.94,307.17 1008.57,307.25 1009.20,307.25
             1010.05,307.25 1010.90,306.54 1011.73,305.11
             1012.58,303.67 1013.00,301.81 1013.00,299.52
             1013.00,297.61 1012.50,296.05 1011.50,294.83
             1010.51,293.61 1009.37,293.00 1008.08,293.00
             1008.08,293.00 1003.16,293.00 1003.16,293.00
             1003.16,293.00 1003.16,299.41 1003.16,299.41
             1003.16,304.05 1001.30,307.98 997.58,311.19
             993.86,314.40 989.43,316.00 984.30,316.00
             978.50,316.00 973.50,314.17 969.30,310.50
             965.10,306.82 963.00,302.36 963.00,297.09
             963.00,293.55 964.40,290.53 967.20,288.02
             970.00,285.51 972.60,284.25 975.00,284.25
             975.00,284.25 975.00,262.84 975.00,262.84 Z" />
</svg>
